<svg xmlns="http://www.w3.org/2000/svg" viewBox="0 0 512 512">
  <g fill="#0099FF">
    <path d="M432 256c0-50.9-30.1-95.8-73.3-116.6 14.4-63.6 8-114.2-20.2-130.4C338 3.8 330.4 2 322 2v124c14.2 0 27.8 1.9 40.5 5.6C408.5 137.8 432 191.6 432 256zm-112 0c0-35.3-13.1-66.5-32.7-89.6-7.9 30.5-22.4 59.2-42.7 83.8 9.2 3.1 18.6 5.9 28.1 8.4 6.3-13.4 13.2-26.8 20.7-39.9 7.8-13.5 15.8-26.3 24.1-38.2 14.9-1.3 30-2 45.2-2 15.1 0 30.2 .7 45 1.9 8.3 11.9 16.4 24.6 24.2 38 7.6 13.1 14.5 26.4 20.8 39.8 10.4-2.5 20.6-5.3 30.7-8.5-20.3-24.6-34.8-53.3-42.7-83.8C430.1 189.5 416 220.7 416 256zM320 78c-14.6 15.3-28.5 33-41.7 52.4-5.4-13.9-11.4-27.3-17.9-40C288 86.7 304.5 81.6 320 78zm-128 0c15.5 3.6 32 8.7 49.6 12.4-6.5 12.7-12.5 26.1-17.9 40C260.5 111 246.6 93.3 232 78zM80.7 296c-14.2-2.1-27.9-4.7-41-7.9 6.1-13.4 12.9-26.8 20.5-39.9 7.8-13.5 15.8-26.3 24.1-38.2 14.9-1.3 30-2 45.2-2 15.1 0 30.2 .7 45 1.9 8.3 11.9 16.4 24.6 24.2 38 7.6 13.1 14.5 26.4 20.8 39.8-13.1 3.2-26.9 5.9-41.2 8zM232 434c-15.5 3.6-32 8.7-49.6 12.4 6.5 13.9 13.4 27.3 20.5 40 13.1-2.1 25.7-5.8 37.9-11-6.3-13.4-13.2-26.8-20.7-39.9-7.8-13.5-15.8-26.3-24.1-38.2z"/>
    <circle cx="256" cy="256" r="45.7"/>
  </g>
</svg>
